<?xml version="1.0" encoding="UTF-8" standalone="no"?>
<svg
   version="1.0"
   width="85.080002mm"
   height="19.559999mm"
   id="svg33"
   sodipodi:docname="logo_default.emf"
   xmlns:inkscape="http://www.inkscape.org/namespaces/inkscape"
   xmlns:sodipodi="http://sodipodi.sourceforge.net/DTD/sodipodi-0.dtd"
   xmlns="http://www.w3.org/2000/svg"
   xmlns:svg="http://www.w3.org/2000/svg">
  <sodipodi:namedview
     id="namedview33"
     pagecolor="#ffffff"
     bordercolor="#000000"
     borderopacity="0.25"
     inkscape:showpageshadow="2"
     inkscape:pageopacity="0.0"
     inkscape:pagecheckerboard="0"
     inkscape:deskcolor="#d1d1d1"
     inkscape:document-units="mm" />
  <defs
     id="defs1">
    <clipPath
       clipPathUnits="userSpaceOnUse"
       id="clipEmfPath1">
      <path
         d="  M 0,0   L 0,0   L 0,75.671397   L 322.35995,75.671397   L 322.35995,0 "
         id="path1" />
    </clipPath>
    <pattern
       id="EMFhbasepattern"
       patternUnits="userSpaceOnUse"
       width="6"
       height="6"
       x="0"
       y="0" />
  </defs>
  <path
     style="fill:#7c7d7e;fill-rule:nonzero;fill-opacity:1;stroke:none;"
     clip-path="url(#clipEmfPath1)"
     d="  M 92.517207,32.931071   L 92.517207,32.931071   C 88.01637,37.034943 83.415514,38.736548 77.714454,38.736548   C 66.612389,38.736548 57.410677,32.330504 57.410677,19.218132   C 57.410677,6.2058553 66.612389,-0.10009444 77.714454,-0.10009444   C 83.215477,-0.10009444 87.416258,1.3012277 91.617039,5.2049109   L 85.615923,11.210577   C 83.315495,9.3087829 80.514975,8.407933 77.914491,8.407933   C 71.5133,8.3078385 66.912445,12.812088 66.912445,19.218132   C 66.912445,26.224743 71.813356,30.028332 77.714454,30.028332   C 80.81503,30.028332 83.815588,29.127482 86.116016,26.925404   L 92.517207,32.931071   z "
     id="path2" />
  <path
     style="fill:#7c7d7e;fill-rule:nonzero;fill-opacity:1;stroke:none;"
     clip-path="url(#clipEmfPath1)"
     d="  M 100.71873,19.118038   L 100.71873,19.118038   C 100.71873,26.224743 105.9197,30.42871 112.22087,30.42871   C 127.4237,30.42871 127.4237,7.8073663 112.22087,7.8073663   C 105.9197,7.8073663 100.71873,11.911238 100.71873,19.118038   z  M 124.12308,0.40037776   L 124.12308,0.40037776   L 133.3248,0.40037776   L 133.3248,37.835698   L 124.2231,37.835698   L 123.82303,32.330504   C 121.5226,36.73466 115.52149,38.836643 111.12067,38.936737   C 99.618527,39.036832 91.116946,32.23041 91.116946,19.017944   C 91.116946,6.2058553 100.0186,-0.5004722 111.42072,-0.40037776   C 116.62169,-0.40037776 121.5226,1.9017944 123.82303,5.6052886   L 124.12308,0.40037776   z "
     id="path3" />
  <path
     style="fill:#7c7d7e;fill-rule:nonzero;fill-opacity:1;stroke:none;"
     clip-path="url(#clipEmfPath1)"
     d="  M 163.23036,37.835698   L 163.23036,37.835698   L 163.33038,17.81681   C 163.33038,12.912183 160.62987,8.407933 155.32889,8.407933   C 150.12792,8.407933 147.02734,12.912183 147.02734,17.81681   L 147.02734,37.835698   L 137.42556,37.835698   L 137.42556,0.40037776   L 146.32721,0.40037776   L 147.02734,4.9046276   C 149.02772,1.1010388 153.52855,-0.10009444 157.22924,-0.10009444   C 161.93012,-0.10009444 166.63099,1.601511 168.8314,6.8064219   C 172.23203,1.5014166 176.73287,0 181.83382,0   C 192.93588,0 198.33689,6.5061386 198.33689,17.716716   L 198.33689,37.835698   L 188.7351,37.835698   L 188.7351,17.716716   C 188.7351,12.711994 186.53469,8.6081218 181.33373,8.6081218   C 176.13276,8.6081218 172.93216,12.912183 172.93216,17.81681   L 172.93216,37.835698   L 163.23036,37.835698   z "
     id="path4" />
  <path
     style="fill:#7c7d7e;fill-rule:nonzero;fill-opacity:1;stroke:none;"
     clip-path="url(#clipEmfPath1)"
     d="  M 233.84349,19.218132   L 233.84349,19.218132   C 233.84349,13.312561 229.74273,8.5080274 222.74143,8.6081218   C 215.84014,8.5080274 211.73938,13.312561 211.73938,19.118038   C 211.73938,25.02361 216.24022,29.828143 222.74143,29.828143   C 229.34265,29.828143 233.84349,25.02361 233.84349,19.218132   z  M 201.23743,47.644953   L 201.23743,47.644953   L 201.23743,0.40037776   L 210.2391,0.40037776   L 210.83921,5.6052886   C 213.83977,1.4013222 219.04074,-0.30028332 223.54158,-0.30028332   C 235.54381,-0.30028332 243.44528,8.2077441 243.44528,19.218132   C 243.44528,30.128426 236.24394,38.736548 223.84163,38.736548   C 219.74087,38.736548 213.63973,37.535415 210.83921,33.431543   L 210.83921,47.644953   L 201.23743,47.644953   z "
     id="path5" />
  <path
     style="fill:#7c7d7e;fill-rule:nonzero;fill-opacity:1;stroke:none;"
     clip-path="url(#clipEmfPath1)"
     d="  M 315.25863,10.409822   L 315.25863,10.409822   C 312.45811,7.9074608 309.35754,7.1067052 305.65685,7.1067052   C 301.05599,7.1067052 298.55553,8.5080274 298.55553,10.8102   C 298.55553,13.212466 300.85595,14.513694 305.75687,14.813977   C 313.05822,15.314449 322.35995,16.815866 322.35995,26.625121   C 322.35995,33.13126 316.75891,38.736548 305.75687,38.736548   C 299.55571,38.736548 293.45458,37.835698 287.75352,32.130315   L 292.45439,25.624177   C 295.25491,28.62701 301.55608,30.728993 305.85688,30.829088   C 309.45755,30.929182 312.85819,29.127482 312.85819,26.424932   C 312.85819,23.922571 310.65778,22.821532 305.15675,22.521249   C 297.8554,22.020777 289.15378,19.418321 289.15378,11.110483   C 289.15378,2.6024554 298.35549,-0.30028332 305.45681,-0.30028332   C 311.55794,-0.30028332 316.05878,0.70066108 320.55962,4.4041554   L 315.25863,10.409822   z "
     id="path6" />
  <path
     style="fill:#7c7d7e;fill-rule:nonzero;fill-opacity:1;stroke:none;"
     clip-path="url(#clipEmfPath1)"
     d="  M 286.65331,38.636454   L 286.65331,38.636454   L 286.55329,0.40037776   L 276.05134,0.40037776   L 276.05134,19.418321   C 276.05134,22.120871 275.15117,24.623232 273.45086,26.424932   C 271.65052,28.326727 269.25008,29.327671 266.64959,29.327671   C 264.34916,29.327671 262.44881,28.727104 260.84851,27.525971   C 258.84814,25.824366 257.74794,23.121816 257.74794,19.818699   L 257.74794,0.40037776   L 247.04595,0.40037776   L 247.14597,19.918794   C 247.14597,26.525027 249.34637,32.030221 253.34712,35.333337   C 256.14764,37.535415 259.74831,38.736548 263.74905,38.736548   C 268.95002,38.736548 272.85075,37.034943 277.25156,33.031165   L 277.25156,32.931071   L 286.65331,38.636454   z "
     id="path7" />
  <path
     style="fill:#0c8187;fill-rule:nonzero;fill-opacity:1;stroke:none;"
     clip-path="url(#clipEmfPath1)"
     d="  M 52.009673,21.920682   L 52.009673,21.920682   L 32.90612,0.5004722   L 20.203758,0.5004722   L 32.706083,14.613788   C 34.30638,16.515583 35.206548,18.817755 35.206548,21.019832   C 35.106529,23.322005 34.106343,25.423988 32.20599,27.025499   C 30.605692,28.326727 28.905376,28.927293 27.105041,28.927293   C 24.604576,28.927293 22.20413,27.72616 20.103739,25.423988   L 12.802381,17.016055   L 0,17.016055   L 12.702362,31.529749   C 16.803125,36.134093 21.704037,38.636454 26.604948,38.636454   C 30.005581,38.636454 33.206176,37.435321 36.006697,35.233243   C 39.707385,32.23041 41.807776,28.026443 42.307869,22.020777   L 42.307869,21.920682   L 52.009673,21.920682   z "
     id="path8" />
  <path
     style="fill:#7c7d7e;fill-rule:nonzero;fill-opacity:1;stroke:none;"
     clip-path="url(#clipEmfPath1)"
     d="  M 39.707385,54.251187   L 39.707385,54.251187   L 33.60625,54.251187   L 33.60625,70.266297   L 32.406027,70.266297   L 32.406027,54.251187   L 26.304892,54.251187   L 26.304892,53.150148   L 39.707385,53.150148   L 39.707385,54.251187   z "
     id="path9" />
  <path
     style="fill:#7c7d7e;fill-rule:nonzero;fill-opacity:1;stroke:none;"
     clip-path="url(#clipEmfPath1)"
     d="  M 47.408817,63.059497   L 47.408817,63.059497   C 47.408817,62.458931 47.308799,61.858364 47.20878,61.357892   C 47.008743,60.85742 46.708687,60.356947 46.408631,60.056664   C 46.108575,59.656286 45.708501,59.356003 45.208408,59.155814   C 44.808334,59.05572 44.308241,58.955625 43.708129,58.955625   C 43.108017,58.955625 42.507906,59.05572 42.007813,59.255909   C 41.50772,59.356003 41.107645,59.656286 40.80759,60.056664   C 40.407515,60.457042 40.107459,60.85742 39.907422,61.357892   C 39.707385,61.858364 39.507348,62.458931 39.507348,63.059497   L 47.408817,63.059497   z  M 39.407329,63.760158   L 39.407329,63.760158   L 39.407329,64.060442   C 39.407329,64.961292 39.507348,65.762047 39.707385,66.462708   C 39.907422,67.063275 40.207478,67.663841 40.607552,68.164314   C 41.007627,68.564691 41.50772,68.965069 42.007813,69.165258   C 42.607924,69.465541 43.208036,69.565636 43.908166,69.565636   C 44.508278,69.565636 45.008371,69.465541 45.408445,69.365447   C 45.908538,69.165258 46.208594,69.065164 46.50865,68.864975   C 46.808706,68.76488 47.108761,68.564691 47.308799,68.464597   C 47.408817,68.364503 47.608854,68.264408 47.708873,68.264408   C 47.808892,68.264408 47.808892,68.264408 47.90891,68.364503   L 48.208966,68.76488   C 48.008929,68.965069 47.808892,69.265353 47.408817,69.465541   C 47.108761,69.66573 46.808706,69.865919 46.408631,69.966014   C 46.008557,70.166202 45.608482,70.266297 45.108389,70.366391   C 44.708315,70.466486 44.208222,70.466486 43.808148,70.466486   C 42.90798,70.466486 42.20785,70.366391 41.50772,70.066108   C 40.80759,69.765825 40.307497,69.365447 39.807404,68.76488   C 39.307311,68.264408 38.907236,67.563747 38.707199,66.762992   C 38.407143,65.962236 38.307125,65.061386 38.307125,64.060442   C 38.307125,63.159592 38.407143,62.358836 38.60718,61.658175   C 38.907236,60.85742 39.207292,60.256853 39.707385,59.756381   C 40.207478,59.255909 40.707571,58.755436 41.407701,58.455153   C 42.107831,58.254964 42.807962,58.054775 43.708129,58.054775   C 44.408259,58.054775 45.008371,58.15487 45.608482,58.455153   C 46.208594,58.655342 46.708687,58.955625 47.108761,59.456097   C 47.508836,59.856475 47.90891,60.457042 48.108948,61.057608   C 48.409003,61.75827 48.509022,62.458931 48.509022,63.359781   C 48.509022,63.559969 48.509022,63.660064 48.409003,63.660064   C 48.409003,63.760158 48.308985,63.760158 48.208966,63.760158   L 39.407329,63.760158   z "
     id="path10" />
  <path
     style="fill:#7c7d7e;fill-rule:nonzero;fill-opacity:1;stroke:none;"
     clip-path="url(#clipEmfPath1)"
     d="  M 59.711105,59.856475   L 59.711105,59.856475   C 59.711105,59.95657 59.611087,59.95657 59.611087,59.95657   C 59.611087,59.95657 59.511068,60.056664 59.41105,60.056664   C 59.41105,60.056664 59.311031,59.95657 59.110994,59.856475   C 59.010975,59.756381 58.810938,59.656286 58.610901,59.456097   C 58.310845,59.356003 58.010789,59.255909 57.710733,59.155814   C 57.310659,59.05572 56.910584,58.955625 56.410491,58.955625   C 55.710361,58.955625 55.11025,59.05572 54.610157,59.356003   C 54.010045,59.556192 53.609971,59.95657 53.209896,60.356947   C 52.809822,60.85742 52.509766,61.457986 52.409747,62.058553   C 52.20971,62.759214 52.109692,63.459875 52.109692,64.260631   C 52.109692,65.16148 52.20971,65.862142 52.409747,66.562803   C 52.609785,67.163369 52.809822,67.763936 53.209896,68.164314   C 53.609971,68.664786 54.010045,68.965069 54.510138,69.165258   C 55.010231,69.465541 55.610343,69.565636 56.310473,69.565636   C 56.810566,69.565636 57.310659,69.465541 57.710733,69.365447   C 58.110808,69.265353 58.410863,69.065164 58.710919,68.864975   C 58.910957,68.76488 59.110994,68.564691 59.311031,68.464597   C 59.41105,68.364503 59.511068,68.264408 59.611087,68.264408   C 59.711105,68.264408 59.811124,68.264408 59.911143,68.364503   L 60.211198,68.76488   C 60.011161,68.965069 59.811124,69.265353 59.511068,69.465541   C 59.211012,69.66573 58.910957,69.865919 58.510882,69.966014   C 58.210826,70.166202 57.810752,70.266297 57.410677,70.366391   C 57.010603,70.466486 56.51051,70.466486 56.110436,70.466486   C 55.310287,70.466486 54.610157,70.366391 54.010045,70.066108   C 53.309915,69.765825 52.809822,69.365447 52.309729,68.864975   C 51.909654,68.264408 51.50958,67.663841 51.309543,66.863086   C 51.009487,66.162425 50.909468,65.261575 50.909468,64.260631   C 50.909468,63.359781 51.009487,62.559025 51.309543,61.75827   C 51.50958,60.957514 51.809636,60.356947 52.309729,59.756381   C 52.809822,59.255909 53.409933,58.855531 54.010045,58.555247   C 54.710175,58.254964 55.510324,58.054775 56.310473,58.054775   C 57.110622,58.054775 57.810752,58.15487 58.410863,58.455153   C 59.010975,58.655342 59.611087,59.05572 60.011161,59.456097   L 59.711105,59.856475   z "
     id="path11" />
  <path
     style="fill:#7c7d7e;fill-rule:nonzero;fill-opacity:1;stroke:none;"
     clip-path="url(#clipEmfPath1)"
     d="  M 64.111924,60.356947   L 64.111924,60.356947   C 64.712035,59.656286 65.312147,59.155814 66.112296,58.655342   C 66.812426,58.254964 67.612575,58.054775 68.512742,58.054775   C 69.212872,58.054775 69.812984,58.15487 70.313077,58.355059   C 70.81317,58.555247 71.213245,58.855531 71.5133,59.255909   C 71.813356,59.656286 72.113412,60.156758 72.313449,60.757325   C 72.413468,61.257797 72.513486,61.858364 72.513486,62.559025   L 72.513486,70.366391   L 71.413282,70.266297   L 71.413282,62.559025   C 71.413282,61.457986 71.113226,60.557136 70.613133,59.95657   C 70.11304,59.255909 69.312891,58.955625 68.212686,58.955625   C 67.412538,58.955625 66.712407,59.155814 66.012277,59.556192   C 65.312147,59.95657 64.712035,60.557136 64.211942,61.257797   L 64.211942,70.266297   L 63.011719,70.266297   L 63.011719,58.254964   L 63.711849,58.254964   C 63.911887,58.254964 64.011905,58.355059 64.011905,58.555247   L 64.111924,60.356947   z "
     id="path12" />
  <path
     style="fill:#7c7d7e;fill-rule:nonzero;fill-opacity:1;stroke:none;"
     clip-path="url(#clipEmfPath1)"
     d="  M 81.115086,69.565636   L 81.115086,69.565636   C 81.815216,69.565636 82.515347,69.465541 83.01544,69.165258   C 83.515533,68.965069 84.015626,68.564691 84.4157,68.164314   C 84.715756,67.663841 85.015812,67.163369 85.215849,66.462708   C 85.315867,65.862142 85.415886,65.061386 85.415886,64.260631   C 85.415886,63.459875 85.315867,62.759214 85.215849,62.058553   C 85.015812,61.457986 84.715756,60.85742 84.4157,60.457042   C 84.015626,59.95657 83.515533,59.556192 83.01544,59.356003   C 82.515347,59.05572 81.815216,58.955625 81.115086,58.955625   C 80.414956,58.955625 79.814844,59.05572 79.214733,59.356003   C 78.71464,59.556192 78.314565,59.95657 77.914491,60.457042   C 77.514416,60.85742 77.314379,61.457986 77.114342,62.058553   C 76.914305,62.759214 76.814286,63.459875 76.814286,64.260631   C 76.814286,65.061386 76.914305,65.862142 77.114342,66.462708   C 77.314379,67.163369 77.514416,67.663841 77.914491,68.164314   C 78.314565,68.564691 78.71464,68.965069 79.214733,69.165258   C 79.814844,69.465541 80.414956,69.565636 81.115086,69.565636   z  M 81.115086,58.054775   L 81.115086,58.054775   C 82.015254,58.054775 82.815402,58.254964 83.415514,58.555247   C 84.115644,58.755436 84.715756,59.255909 85.215849,59.756381   C 85.615923,60.256853 86.015998,60.957514 86.216035,61.75827   C 86.516091,62.458931 86.616109,63.359781 86.616109,64.260631   C 86.616109,65.261575 86.516091,66.06233 86.216035,66.863086   C 86.015998,67.563747 85.615923,68.264408 85.215849,68.76488   C 84.715756,69.365447 84.115644,69.765825 83.415514,70.066108   C 82.815402,70.366391 82.015254,70.466486 81.115086,70.466486   C 80.314937,70.466486 79.514788,70.366391 78.814658,70.066108   C 78.114528,69.765825 77.514416,69.365447 77.114342,68.76488   C 76.614249,68.264408 76.214175,67.563747 76.014137,66.863086   C 75.714082,66.06233 75.614063,65.261575 75.614063,64.260631   C 75.614063,63.359781 75.8141,62.458931 76.014137,61.75827   C 76.214175,60.957514 76.614249,60.256853 77.114342,59.756381   C 77.514416,59.255909 78.114528,58.755436 78.814658,58.555247   C 79.514788,58.254964 80.314937,58.054775 81.115086,58.054775   z "
     id="path13" />
  <path
     style="fill:#7c7d7e;fill-rule:nonzero;fill-opacity:1;stroke:none;"
     clip-path="url(#clipEmfPath1)"
     d="  M 91.116946,52.649675   L 91.116946,52.649675   L 91.116946,70.366391   L 90.016742,70.366391   L 90.016742,52.649675   L 91.116946,52.649675   z "
     id="path14" />
  <path
     style="fill:#7c7d7e;fill-rule:nonzero;fill-opacity:1;stroke:none;"
     clip-path="url(#clipEmfPath1)"
     d="  M 100.0186,69.565636   L 100.0186,69.565636   C 100.71873,69.565636 101.31884,69.465541 101.91896,69.165258   C 102.41905,68.965069 102.91914,68.564691 103.2192,68.164314   C 103.61927,67.663841 103.81931,67.163369 104.01935,66.462708   C 104.21938,65.862142 104.3194,65.061386 104.3194,64.260631   C 104.3194,63.459875 104.21938,62.759214 104.01935,62.058553   C 103.81931,61.457986 103.61927,60.85742 103.2192,60.457042   C 102.91914,59.95657 102.41905,59.556192 101.91896,59.356003   C 101.31884,59.05572 100.71873,58.955625 100.0186,58.955625   C 99.318472,58.955625 98.618341,59.05572 98.118248,59.356003   C 97.618155,59.556192 97.118062,59.95657 96.818007,60.457042   C 96.417932,60.85742 96.117876,61.457986 96.017858,62.058553   C 95.817821,62.759214 95.717802,63.459875 95.717802,64.260631   C 95.717802,65.061386 95.817821,65.862142 96.017858,66.462708   C 96.117876,67.163369 96.417932,67.663841 96.818007,68.164314   C 97.118062,68.564691 97.618155,68.965069 98.118248,69.165258   C 98.618341,69.465541 99.318472,69.565636 100.0186,69.565636   z  M 100.0186,58.054775   L 100.0186,58.054775   C 100.91877,58.054775 101.6189,58.254964 102.31903,58.555247   C 103.01916,58.755436 103.61927,59.255909 104.01935,59.756381   C 104.51944,60.256853 104.91951,60.957514 105.11955,61.75827   C 105.41961,62.458931 105.51962,63.359781 105.51962,64.260631   C 105.51962,65.261575 105.41961,66.06233 105.11955,66.863086   C 104.91951,67.563747 104.51944,68.264408 104.01935,68.76488   C 103.61927,69.365447 103.01916,69.765825 102.31903,70.066108   C 101.6189,70.366391 100.91877,70.466486 100.0186,70.466486   C 99.118434,70.466486 98.418304,70.366391 97.718174,70.066108   C 97.018044,69.765825 96.417932,69.365447 95.917839,68.76488   C 95.517765,68.264408 95.11769,67.563747 94.917653,66.863086   C 94.617597,66.06233 94.517579,65.261575 94.517579,64.260631   C 94.517579,63.359781 94.617597,62.458931 94.917653,61.75827   C 95.11769,60.957514 95.517765,60.256853 95.917839,59.756381   C 96.417932,59.255909 97.018044,58.755436 97.718174,58.555247   C 98.418304,58.254964 99.118434,58.054775 100.0186,58.054775   z "
     id="path15" />
  <path
     style="fill:#7c7d7e;fill-rule:nonzero;fill-opacity:1;stroke:none;"
     clip-path="url(#clipEmfPath1)"
     d="  M 112.62095,64.961292   L 112.62095,64.961292   C 113.12104,64.961292 113.62113,64.961292 114.02121,64.761103   C 114.42128,64.661008 114.82135,64.360725 115.02139,64.160536   C 115.32145,63.860253 115.52149,63.559969 115.72152,63.159592   C 115.82154,62.859308 115.92156,62.358836 115.92156,61.958458   C 115.92156,61.457986 115.82154,61.057608 115.72152,60.657231   C 115.52149,60.356947 115.32145,60.056664 115.02139,59.756381   C 114.72134,59.456097 114.42128,59.255909 114.02121,59.155814   C 113.62113,58.955625 113.12104,58.955625 112.62095,58.855531   C 112.12085,58.855531 111.72078,58.955625 111.3207,59.155814   C 110.92063,59.255909 110.52056,59.456097 110.32052,59.756381   C 110.02046,60.056664 109.82042,60.356947 109.62039,60.657231   C 109.52037,61.057608 109.42035,61.457986 109.42035,61.958458   C 109.42035,62.358836 109.52037,62.859308 109.62039,63.159592   C 109.82042,63.559969 110.02046,63.860253 110.32052,64.160536   C 110.52056,64.360725 110.92063,64.661008 111.3207,64.761103   C 111.72078,64.961292 112.12085,64.961292 112.62095,64.961292   z  M 117.12178,71.167147   L 117.12178,71.167147   C 117.12178,70.766769 117.02176,70.466486 116.82173,70.266297   C 116.62169,69.966014 116.42165,69.765825 116.02158,69.66573   C 115.72152,69.565636 115.32145,69.465541 114.92137,69.365447   C 114.5213,69.365447 114.02121,69.365447 113.52111,69.265353   C 113.12104,69.265353 112.62095,69.265353 112.12085,69.265353   C 111.62076,69.165258 111.22069,69.165258 110.82061,69.065164   C 110.52056,69.165258 110.2205,69.365447 109.92044,69.465541   C 109.72041,69.66573 109.52037,69.865919 109.32033,70.066108   C 109.12029,70.266297 108.92026,70.466486 108.82024,70.666675   C 108.72022,70.966958 108.72022,71.167147 108.72022,71.46743   C 108.72022,71.767714 108.82024,72.168091 108.92026,72.468375   C 109.12029,72.768658 109.42035,72.968847 109.72041,73.26913   C 110.12048,73.469319 110.52056,73.669508 111.02065,73.769602   C 111.52074,73.869697 112.12085,73.969791 112.82098,73.969791   C 113.42109,73.969791 114.02121,73.869697 114.5213,73.769602   C 115.02139,73.569413 115.52149,73.469319 115.92156,73.169036   C 116.32163,72.968847 116.62169,72.668563 116.82173,72.268186   C 117.02176,71.967902 117.12178,71.567525 117.12178,71.167147   z  M 118.42202,58.755436   L 118.42202,58.755436   L 118.42202,59.155814   C 118.42202,59.356003 118.32201,59.456097 118.12197,59.556192   L 116.22162,59.656286   C 116.42165,59.95657 116.62169,60.356947 116.72171,60.657231   C 116.92175,61.057608 116.92175,61.457986 116.92175,61.958458   C 116.92175,62.458931 116.82173,63.059497 116.62169,63.459875   C 116.42165,63.960347 116.1216,64.360725 115.72152,64.761103   C 115.42147,65.061386 114.92137,65.361669 114.42128,65.461764   C 113.92119,65.661953 113.32108,65.762047 112.62095,65.762047   C 111.92082,65.762047 111.3207,65.661953 110.82061,65.461764   C 110.42054,65.661953 110.12048,65.862142 110.02046,66.162425   C 109.82042,66.362614 109.72041,66.662897 109.72041,66.96318   C 109.72041,67.263464 109.82042,67.563747 110.02046,67.763936   C 110.32052,67.964125 110.62057,68.064219 111.02065,68.164314   C 111.42072,68.264408 111.8208,68.264408 112.42091,68.264408   C 112.921,68.364503 113.42109,68.364503 113.92119,68.364503   C 114.5213,68.364503 115.02139,68.464597 115.52149,68.564691   C 116.02158,68.564691 116.52167,68.76488 116.92175,68.864975   C 117.32182,69.065164 117.62188,69.365447 117.82191,69.66573   C 118.12197,69.966014 118.22199,70.466486 118.22199,70.966958   C 118.22199,71.46743 118.12197,71.967902 117.82191,72.468375   C 117.62188,72.868752 117.2218,73.26913 116.72171,73.669508   C 116.32163,73.969791 115.72152,74.270075 115.02139,74.470263   C 114.42128,74.670452 113.62113,74.870641 112.82098,74.870641   C 111.92082,74.770547 111.22069,74.770547 110.52056,74.570358   C 109.92044,74.370169 109.42035,74.16998 108.92026,73.869697   C 108.52018,73.569413 108.22013,73.26913 108.02009,72.868752   C 107.82005,72.468375 107.62002,72.067997 107.62002,71.567525   C 107.62002,70.966958 107.92007,70.366391 108.32015,69.966014   C 108.72022,69.465541 109.32033,69.165258 110.02046,68.864975   C 109.62039,68.76488 109.32033,68.564691 109.02028,68.264408   C 108.82024,68.064219 108.6202,67.663841 108.6202,67.163369   C 108.6202,67.063275 108.72022,66.863086 108.72022,66.662897   C 108.82024,66.462708 108.92026,66.262519 109.02028,66.162425   C 109.22031,65.962236 109.32033,65.762047 109.52037,65.561858   C 109.72041,65.461764 109.92044,65.261575 110.12048,65.16148   C 109.62039,64.861197 109.12029,64.360725 108.82024,63.860253   C 108.52018,63.259686 108.32015,62.659119 108.32015,61.958458   C 108.32015,61.357892 108.42016,60.85742 108.6202,60.356947   C 108.82024,59.856475 109.12029,59.456097 109.52037,59.155814   C 109.92044,58.755436 110.32052,58.555247 110.92063,58.355059   C 111.42072,58.15487 112.02083,58.054775 112.62095,58.054775   C 113.22106,58.054775 113.72115,58.15487 114.12122,58.254964   C 114.62132,58.355059 115.02139,58.555247 115.32145,58.755436   L 118.42202,58.755436   z "
     id="path16" />
  <path
     style="fill:#7c7d7e;fill-rule:nonzero;fill-opacity:1;stroke:none;"
     clip-path="url(#clipEmfPath1)"
     d="  M 122.42277,58.254964   L 122.42277,58.254964   L 122.42277,70.366391   L 121.22255,70.366391   L 121.22255,58.254964   L 122.42277,58.254964   z  M 124.52316,52.949959   L 124.52316,52.949959   L 121.92268,56.052886   C 121.82266,56.152981 121.82266,56.152981 121.72264,56.253075   C 121.62262,56.253075 121.5226,56.253075 121.42258,56.253075   L 120.82247,56.253075   L 122.72282,53.350337   C 122.72282,53.250242 122.82284,53.150148 122.92286,53.050053   C 123.02288,53.050053 123.22292,52.949959 123.42295,52.949959   L 124.52316,52.949959   z "
     id="path17" />
  <path
     style="fill:#7c7d7e;fill-rule:nonzero;fill-opacity:1;stroke:none;"
     clip-path="url(#clipEmfPath1)"
     d="  M 133.22478,64.460819   L 133.22478,64.460819   C 132.12457,64.560914 131.12439,64.661008 130.22422,64.761103   C 129.42407,64.861197 128.72394,65.061386 128.22385,65.361669   C 127.72375,65.561858 127.32368,65.862142 127.02362,66.162425   C 126.72357,66.562803 126.62355,66.96318 126.62355,67.363558   C 126.62355,67.763936 126.72357,68.064219 126.82359,68.364503   C 127.02362,68.664786 127.12364,68.965069 127.4237,69.165258   C 127.62374,69.365447 127.82377,69.465541 128.12383,69.565636   C 128.42388,69.66573 128.72394,69.66573 129.024,69.66573   C 129.52409,69.66573 129.92416,69.66573 130.32424,69.565636   C 130.72431,69.465541 131.12439,69.265353 131.42444,69.065164   C 131.7245,68.965069 132.12457,68.664786 132.32461,68.464597   C 132.62467,68.164314 132.92472,67.964125 133.22478,67.663841   L 133.22478,64.460819   z  M 126.12346,59.95657   L 126.12346,59.95657   C 126.82359,59.356003 127.4237,58.855531 128.12383,58.555247   C 128.82396,58.254964 129.62411,58.054775 130.52428,58.054775   C 131.12439,58.054775 131.7245,58.15487 132.22459,58.355059   C 132.72468,58.555247 133.12476,58.855531 133.42481,59.255909   C 133.72487,59.656286 133.92491,60.056664 134.12495,60.657231   C 134.32498,61.157703 134.32498,61.75827 134.32498,62.458931   L 134.32498,70.366391   L 133.92491,70.366391   C 133.62485,70.366391 133.52483,70.166202 133.42481,69.966014   L 133.3248,68.464597   C 132.92472,68.76488 132.62467,69.065164 132.32461,69.265353   C 131.92454,69.565636 131.62448,69.765825 131.22441,69.966014   C 130.92435,70.166202 130.52428,70.266297 130.1242,70.366391   C 129.72413,70.466486 129.22403,70.56658 128.72394,70.56658   C 128.32387,70.56658 127.92379,70.466486 127.52372,70.366391   C 127.22366,70.266297 126.82359,70.066108 126.52353,69.765825   C 126.22348,69.565636 126.02344,69.165258 125.8234,68.864975   C 125.62336,68.464597 125.52335,67.964125 125.52335,67.363558   C 125.52335,66.863086 125.62336,66.462708 125.92342,65.962236   C 126.22348,65.561858 126.72357,65.16148 127.32368,64.861197   C 127.92379,64.560914 128.72394,64.260631 129.72413,64.060442   C 130.72431,63.860253 131.82452,63.760158 133.22478,63.760158   L 133.22478,62.458931   C 133.22478,61.357892 133.02474,60.457042 132.52465,59.856475   C 132.02455,59.255909 131.32442,58.955625 130.32424,58.955625   C 129.82415,58.955625 129.32405,59.05572 128.92398,59.255909   C 128.5239,59.356003 128.12383,59.556192 127.82377,59.756381   C 127.52372,59.95657 127.32368,60.156758 127.12364,60.256853   C 127.02362,60.457042 126.82359,60.557136 126.72357,60.557136   C 126.62355,60.557136 126.52353,60.557136 126.52353,60.457042   C 126.42351,60.457042 126.42351,60.356947 126.32349,60.356947   L 126.12346,59.95657   z "
     id="path18" />
  <path
     style="fill:#7c7d7e;fill-rule:nonzero;fill-opacity:1;stroke:none;"
     clip-path="url(#clipEmfPath1)"
     d="  M 145.92714,67.663841   L 145.92714,67.663841   C 146.2272,68.064219 146.42723,68.364503 146.72729,68.564691   C 146.92733,68.864975 147.22738,68.965069 147.52744,69.165258   C 147.72747,69.265353 148.02753,69.465541 148.42761,69.465541   C 148.72766,69.565636 149.02772,69.565636 149.42779,69.565636   C 150.12792,69.565636 150.72803,69.465541 151.22813,69.165258   C 151.82824,68.965069 152.22831,68.564691 152.62839,68.064219   C 152.92844,67.663841 153.2285,67.063275 153.42854,66.362614   C 153.62857,65.762047 153.72859,65.061386 153.72859,64.260631   C 153.72859,62.458931 153.32852,61.157703 152.72841,60.256853   C 152.02827,59.456097 151.12811,58.955625 149.82787,58.955625   C 149.02772,58.955625 148.32759,59.155814 147.72747,59.656286   C 147.02734,60.056664 146.42723,60.557136 145.92714,61.357892   L 145.92714,67.663841   z  M 145.92714,60.457042   L 145.92714,60.457042   C 146.42723,59.756381 147.02734,59.155814 147.72747,58.755436   C 148.52762,58.254964 149.32777,58.054775 150.12792,58.054775   C 151.6282,58.054775 152.82842,58.555247 153.62857,59.556192   C 154.42872,60.657231 154.8288,62.158647 154.8288,64.260631   C 154.8288,65.061386 154.72878,65.962236 154.52874,66.662897   C 154.3287,67.463653 153.92863,68.164314 153.52855,68.664786   C 153.02846,69.265353 152.52837,69.66573 151.82824,69.966014   C 151.22813,70.366391 150.42798,70.466486 149.62783,70.466486   C 148.82768,70.466486 148.12755,70.366391 147.52744,70.066108   C 146.92733,69.765825 146.42723,69.265353 145.92714,68.76488   L 145.92714,74.570358   L 144.82694,74.570358   L 144.82694,58.254964   L 145.42705,58.254964   C 145.62708,58.254964 145.7271,58.355059 145.82712,58.555247   L 145.92714,60.457042   z "
     id="path19" />
  <path
     style="fill:#7c7d7e;fill-rule:nonzero;fill-opacity:1;stroke:none;"
     clip-path="url(#clipEmfPath1)"
     d="  M 164.93067,64.460819   L 164.93067,64.460819   C 163.73045,64.560914 162.73027,64.661008 161.93012,64.761103   C 161.12997,64.961292 160.42984,65.061386 159.92974,65.361669   C 159.32963,65.561858 158.92956,65.862142 158.72952,66.262519   C 158.42947,66.562803 158.32945,66.96318 158.32945,67.363558   C 158.32945,67.763936 158.32945,68.164314 158.52948,68.364503   C 158.6295,68.664786 158.82954,68.965069 159.02958,69.165258   C 159.22961,69.365447 159.52967,69.465541 159.82973,69.565636   C 160.12978,69.66573 160.42984,69.66573 160.72989,69.66573   C 161.12997,69.66573 161.63006,69.66573 162.03014,69.565636   C 162.43021,69.465541 162.73027,69.265353 163.13034,69.065164   C 163.4304,68.965069 163.73045,68.76488 164.03051,68.464597   C 164.33056,68.264408 164.63062,67.964125 164.93067,67.663841   L 164.93067,64.460819   z  M 157.82935,59.95657   L 157.82935,59.95657   C 158.42947,59.356003 159.1296,58.855531 159.82973,58.555247   C 160.52986,58.254964 161.22999,58.054775 162.13015,58.054775   C 162.83028,58.054775 163.33038,58.15487 163.83047,58.355059   C 164.33056,58.555247 164.73064,58.855531 165.03069,59.255909   C 165.33075,59.656286 165.6308,60.156758 165.73082,60.657231   C 165.93086,61.157703 166.03088,61.858364 166.03088,62.458931   L 166.03088,70.366391   L 165.53079,70.366391   C 165.33075,70.366391 165.13071,70.266297 165.13071,69.966014   L 164.93067,68.464597   C 164.63062,68.76488 164.23054,69.065164 163.93049,69.365447   C 163.63043,69.565636 163.33038,69.765825 162.9303,69.966014   C 162.53023,70.166202 162.23017,70.266297 161.73008,70.366391   C 161.33,70.466486 160.92993,70.56658 160.42984,70.56658   C 160.02976,70.56658 159.62969,70.466486 159.22961,70.366391   C 158.82954,70.266297 158.52948,70.066108 158.22943,69.765825   C 157.92937,69.565636 157.62932,69.165258 157.42928,68.864975   C 157.22924,68.464597 157.22924,67.964125 157.22924,67.363558   C 157.22924,66.863086 157.32926,66.462708 157.62932,65.962236   C 157.92937,65.561858 158.32945,65.16148 159.02958,64.861197   C 159.62969,64.560914 160.42984,64.260631 161.43002,64.060442   C 162.33019,63.860253 163.53041,63.760158 164.93067,63.760158   L 164.93067,62.458931   C 164.93067,61.357892 164.63062,60.457042 164.13053,59.856475   C 163.73045,59.255909 162.9303,58.955625 162.03014,58.955625   C 161.43002,58.955625 160.92993,59.05572 160.52986,59.255909   C 160.12978,59.356003 159.82973,59.556192 159.52967,59.756381   C 159.22961,59.95657 159.02958,60.156758 158.82954,60.356947   C 158.6295,60.457042 158.52948,60.557136 158.32945,60.557136   C 158.32945,60.557136 158.22943,60.557136 158.12941,60.457042   C 158.12941,60.457042 158.02939,60.356947 158.02939,60.356947   L 157.82935,59.95657   z "
     id="path20" />
  <path
     style="fill:#7c7d7e;fill-rule:nonzero;fill-opacity:1;stroke:none;"
     clip-path="url(#clipEmfPath1)"
     d="  M 170.93179,61.157703   L 170.93179,61.157703   C 171.13183,60.657231 171.33187,60.256853 171.63192,59.856475   C 171.83196,59.456097 172.13201,59.155814 172.43207,58.855531   C 172.73213,58.655342 173.1322,58.455153 173.43226,58.254964   C 173.83233,58.15487 174.33242,58.054775 174.7325,58.054775   C 175.03255,58.054775 175.23259,58.054775 175.53265,58.15487   C 175.73268,58.15487 175.93272,58.254964 176.13276,58.355059   L 176.03274,59.155814   C 176.03274,59.255909 175.93272,59.356003 175.8327,59.356003   C 175.73268,59.356003 175.53265,59.356003 175.33261,59.255909   C 175.13257,59.255909 174.93253,59.155814 174.53246,59.155814   C 174.13239,59.155814 173.73231,59.255909 173.33224,59.456097   C 172.93216,59.556192 172.63211,59.756381 172.33205,60.056664   C 172.13201,60.356947 171.83196,60.657231 171.63192,61.057608   C 171.43188,61.558081 171.23185,61.958458 171.03181,62.559025   L 171.03181,70.366391   L 169.83159,70.366391   L 169.83159,58.254964   L 170.53172,58.254964   C 170.63173,58.254964 170.73175,58.254964 170.73175,58.355059   C 170.83177,58.455153 170.83177,58.555247 170.93179,58.655342   L 170.93179,61.157703   z "
     id="path21" />
  <path
     style="fill:#7c7d7e;fill-rule:nonzero;fill-opacity:1;stroke:none;"
     clip-path="url(#clipEmfPath1)"
     d="  M 184.93439,64.460819   L 184.93439,64.460819   C 183.73417,64.560914 182.834,64.661008 181.93384,64.761103   C 181.13369,64.961292 180.43356,65.16148 179.93346,65.361669   C 179.33335,65.561858 178.93328,65.862142 178.73324,66.262519   C 178.43319,66.562803 178.33317,66.96318 178.33317,67.363558   C 178.33317,67.763936 178.43319,68.164314 178.5332,68.464597   C 178.63322,68.664786 178.83326,68.965069 179.0333,69.165258   C 179.33335,69.365447 179.53339,69.465541 179.83345,69.565636   C 180.1335,69.66573 180.43356,69.66573 180.73361,69.66573   C 181.23371,69.66573 181.63378,69.66573 182.03386,69.565636   C 182.43393,69.465541 182.834,69.265353 183.13406,69.165258   C 183.43412,68.965069 183.73417,68.76488 184.03423,68.464597   C 184.33428,68.264408 184.63434,67.964125 184.93439,67.663841   L 184.93439,64.460819   z  M 177.83307,59.95657   L 177.83307,59.95657   C 178.43319,59.356003 179.13332,58.855531 179.83345,58.555247   C 180.53358,58.254964 181.33373,58.054775 182.23389,58.054775   C 182.834,58.054775 183.43412,58.15487 183.83419,58.355059   C 184.33428,58.555247 184.73436,58.855531 185.13443,59.255909   C 185.43449,59.656286 185.63453,60.156758 185.83456,60.657231   C 185.93458,61.157703 186.0346,61.858364 186.0346,62.458931   L 186.0346,70.366391   L 185.63453,70.366391   C 185.33447,70.366391 185.23445,70.266297 185.13443,69.966014   L 184.93439,68.464597   C 184.63434,68.76488 184.33428,69.065164 183.93421,69.365447   C 183.63415,69.565636 183.3341,69.765825 182.93402,69.966014   C 182.63397,70.166202 182.23389,70.266297 181.83382,70.366391   C 181.43374,70.466486 180.93365,70.56658 180.43356,70.56658   C 180.03348,70.56658 179.63341,70.466486 179.23333,70.366391   C 178.83326,70.266297 178.5332,70.066108 178.23315,69.765825   C 177.93309,69.565636 177.63304,69.265353 177.53302,68.864975   C 177.33298,68.464597 177.23296,67.964125 177.23296,67.463653   C 177.23296,66.863086 177.33298,66.462708 177.63304,65.962236   C 177.93309,65.561858 178.43319,65.16148 179.0333,64.861197   C 179.63341,64.560914 180.43356,64.260631 181.43374,64.060442   C 182.43393,63.860253 183.53413,63.760158 184.93439,63.760158   L 184.93439,62.458931   C 184.93439,61.357892 184.63434,60.557136 184.23426,59.95657   C 183.73417,59.255909 183.03404,58.955625 182.03386,58.955625   C 181.53376,58.955625 181.03367,59.05572 180.53358,59.255909   C 180.1335,59.456097 179.83345,59.556192 179.53339,59.756381   C 179.23333,59.95657 179.0333,60.156758 178.83326,60.356947   C 178.63322,60.457042 178.5332,60.557136 178.43319,60.557136   C 178.33317,60.557136 178.23315,60.557136 178.23315,60.457042   C 178.13313,60.457042 178.13313,60.356947 178.03311,60.356947   L 177.83307,59.95657   z "
     id="path22" />
  <path
     style="fill:#7c7d7e;fill-rule:nonzero;fill-opacity:1;stroke:none;"
     clip-path="url(#clipEmfPath1)"
     d="  M 197.73678,52.74977   L 197.73678,52.74977   L 197.73678,70.366391   L 196.53655,70.366391   L 196.63657,52.74977   L 197.73678,52.74977   z "
     id="path23" />
  <path
     style="fill:#7c7d7e;fill-rule:nonzero;fill-opacity:1;stroke:none;"
     clip-path="url(#clipEmfPath1)"
     d="  M 208.53878,64.560914   L 208.53878,64.560914   C 207.43858,64.560914 206.43839,64.661008 205.63825,64.761103   C 204.8381,64.961292 204.13797,65.16148 203.53785,65.361669   C 203.03776,65.561858 202.63769,65.862142 202.33763,66.262519   C 202.13759,66.562803 202.03758,66.96318 202.03758,67.363558   C 202.03758,67.763936 202.03758,68.164314 202.23761,68.464597   C 202.33763,68.664786 202.53767,68.965069 202.73771,69.165258   C 202.93774,69.365447 203.2378,69.465541 203.53785,69.565636   C 203.73789,69.66573 204.03795,69.66573 204.43802,69.66573   C 204.8381,69.66573 205.33819,69.66573 205.63825,69.565636   C 206.03832,69.465541 206.43839,69.265353 206.73845,69.165258   C 207.13852,68.965069 207.43858,68.76488 207.73864,68.464597   C 208.03869,68.264408 208.33875,67.964125 208.53878,67.663841   L 208.53878,64.560914   z  M 201.53748,59.95657   L 201.53748,59.95657   C 202.13759,59.356003 202.73771,58.855531 203.43784,58.555247   C 204.13797,58.254964 204.93812,58.054775 205.83828,58.054775   C 206.43839,58.054775 207.03851,58.15487 207.5386,58.355059   C 208.03869,58.555247 208.43877,58.855531 208.73882,59.255909   C 209.03888,59.656286 209.33893,60.156758 209.43895,60.657231   C 209.63899,61.257797 209.73901,61.858364 209.73901,62.458931   L 209.73901,70.366391   L 209.23892,70.366391   C 209.03888,70.366391 208.83884,70.266297 208.83884,69.966014   L 208.6388,68.464597   C 208.33875,68.76488 207.93867,69.065164 207.63862,69.365447   C 207.33856,69.565636 206.93849,69.765825 206.63843,69.966014   C 206.23836,70.166202 205.83828,70.266297 205.43821,70.366391   C 205.03813,70.466486 204.63806,70.56658 204.13797,70.56658   C 203.73789,70.56658 203.33782,70.466486 202.93774,70.366391   C 202.53767,70.266297 202.13759,70.066108 201.83754,69.765825   C 201.53748,69.565636 201.33745,69.265353 201.13741,68.864975   C 200.93737,68.464597 200.83735,67.964125 200.83735,67.463653   C 200.83735,66.863086 201.03739,66.462708 201.33745,65.962236   C 201.6375,65.561858 202.03758,65.16148 202.63769,64.861197   C 203.33782,64.560914 204.13797,64.260631 205.03813,64.060442   C 206.03832,63.860253 207.23854,63.760158 208.53878,63.760158   L 208.53878,62.458931   C 208.53878,61.357892 208.33875,60.557136 207.83865,59.95657   C 207.33856,59.356003 206.63843,59.05572 205.73826,59.05572   C 205.13815,59.05572 204.63806,59.05572 204.23799,59.255909   C 203.83791,59.456097 203.43784,59.556192 203.2378,59.756381   C 202.93774,59.95657 202.73771,60.156758 202.53767,60.356947   C 202.33763,60.457042 202.13759,60.557136 202.03758,60.557136   C 201.93756,60.557136 201.93756,60.557136 201.83754,60.457042   C 201.73752,60.457042 201.73752,60.356947 201.73752,60.356947   L 201.53748,59.95657   z "
     id="path24" />
  <path
     style="fill:#7c7d7e;fill-rule:nonzero;fill-opacity:1;stroke:none;"
     clip-path="url(#clipEmfPath1)"
     d="  M 228.54251,63.059497   L 228.54251,63.059497   C 228.54251,62.458931 228.54251,61.858364 228.34247,61.357892   C 228.14243,60.85742 227.84238,60.457042 227.54232,60.056664   C 227.24226,59.656286 226.84219,59.456097 226.3421,59.255909   C 225.94202,59.05572 225.44193,58.955625 224.84182,58.955625   C 224.24171,58.955625 223.64159,59.05572 223.1415,59.255909   C 222.74143,59.456097 222.24133,59.756381 221.94128,60.056664   C 221.5412,60.457042 221.24115,60.85742 221.04111,61.357892   C 220.84107,61.858364 220.64104,62.458931 220.64104,63.059497   L 228.54251,63.059497   z  M 220.54102,63.860253   L 220.54102,63.860253   L 220.54102,64.060442   C 220.54102,64.961292 220.64104,65.762047 220.84107,66.462708   C 221.04111,67.163369 221.34117,67.763936 221.74124,68.164314   C 222.14131,68.664786 222.64141,68.965069 223.1415,69.265353   C 223.74161,69.465541 224.34172,69.565636 225.04185,69.565636   C 225.64197,69.565636 226.14206,69.465541 226.54213,69.365447   C 227.04223,69.265353 227.34228,69.065164 227.74236,68.965069   C 228.04241,68.76488 228.24245,68.664786 228.44249,68.464597   C 228.54251,68.364503 228.74254,68.264408 228.84256,68.264408   C 228.94258,68.264408 228.94258,68.364503 229.0426,68.364503   L 229.34265,68.76488   C 229.14262,69.065164 228.94258,69.265353 228.54251,69.465541   C 228.24245,69.66573 227.94239,69.865919 227.54232,69.966014   C 227.14224,70.166202 226.74217,70.266297 226.24208,70.366391   C 225.842,70.466486 225.34191,70.466486 224.94184,70.466486   C 224.04167,70.466486 223.34154,70.366391 222.64141,70.066108   C 221.94128,69.765825 221.44118,69.365447 220.94109,68.864975   C 220.441,68.264408 220.04092,67.563747 219.84089,66.762992   C 219.54083,65.962236 219.44081,65.061386 219.44081,64.060442   C 219.44081,63.159592 219.54083,62.358836 219.74087,61.658175   C 220.04092,60.957514 220.34098,60.356947 220.84107,59.756381   C 221.34117,59.255909 221.84126,58.855531 222.54139,58.555247   C 223.24152,58.254964 223.94165,58.054775 224.84182,58.054775   C 225.54195,58.054775 226.14206,58.254964 226.74217,58.455153   C 227.34228,58.655342 227.84238,59.05572 228.24245,59.456097   C 228.64252,59.95657 229.0426,60.457042 229.24264,61.157703   C 229.54269,61.75827 229.64271,62.559025 229.64271,63.359781   C 229.64271,63.559969 229.64271,63.660064 229.54269,63.760158   C 229.54269,63.760158 229.44267,63.860253 229.34265,63.860253   L 220.54102,63.860253   z "
     id="path25" />
  <path
     style="fill:#7c7d7e;fill-rule:nonzero;fill-opacity:1;stroke:none;"
     clip-path="url(#clipEmfPath1)"
     d="  M 240.94481,60.85742   L 240.94481,60.85742   C 240.54474,60.156758 240.04464,59.656286 239.44453,59.456097   C 238.94444,59.155814 238.24431,58.955625 237.54418,58.955625   C 236.84405,58.955625 236.24394,59.155814 235.64383,59.356003   C 235.14373,59.656286 234.64364,59.95657 234.34358,60.457042   C 233.94351,60.957514 233.74347,61.558081 233.54344,62.158647   C 233.3434,62.859308 233.24338,63.559969 233.24338,64.360725   C 233.24338,66.162425 233.54344,67.463653 234.24357,68.264408   C 234.84368,69.165258 235.84386,69.565636 237.04409,69.565636   C 237.84424,69.565636 238.64438,69.365447 239.2445,68.965069   C 239.94463,68.564691 240.44472,67.964125 240.94481,67.263464   L 240.94481,60.85742   z  M 242.14504,52.74977   L 242.14504,52.74977   L 242.14504,70.366391   L 241.54492,70.366391   C 241.34489,70.366391 241.14485,70.266297 241.14485,70.066108   L 241.04483,68.164314   C 240.44472,68.864975 239.84461,69.465541 239.14448,69.865919   C 238.44435,70.266297 237.6442,70.466486 236.74403,70.466486   C 235.24375,70.466486 234.14355,69.966014 233.3434,68.965069   C 232.44323,67.964125 232.04316,66.362614 232.04316,64.360725   C 232.04316,63.459875 232.14317,62.659119 232.44323,61.858364   C 232.64327,61.157703 232.94332,60.457042 233.44342,59.856475   C 233.84349,59.356003 234.4436,58.855531 235.04371,58.555247   C 235.74384,58.254964 236.44397,58.054775 237.34414,58.054775   C 238.14429,58.054775 238.84442,58.254964 239.44453,58.555247   C 240.04464,58.855531 240.54474,59.255909 240.94481,59.856475   L 240.94481,52.74977   L 242.14504,52.74977   z "
     id="path26" />
  <path
     style="fill:#7c7d7e;fill-rule:nonzero;fill-opacity:1;stroke:none;"
     clip-path="url(#clipEmfPath1)"
     d="  M 255.44751,58.254964   L 255.44751,58.254964   L 255.44751,70.366391   L 254.8474,70.366391   C 254.64736,70.366391 254.54734,70.266297 254.44732,70.066108   L 254.3473,68.264408   C 253.84721,68.965069 253.14708,69.465541 252.44695,69.865919   C 251.6468,70.366391 250.84665,70.56658 249.94649,70.56658   C 249.34637,70.56658 248.74626,70.466486 248.24617,70.266297   C 247.74608,70.066108 247.346,69.66573 246.94593,69.365447   C 246.64587,68.965069 246.44584,68.464597 246.2458,67.86403   C 246.04576,67.363558 245.94574,66.662897 245.94574,65.962236   L 245.94574,58.254964   L 247.14597,58.254964   L 247.14597,65.962236   C 247.14597,67.163369 247.44602,68.064219 247.94611,68.664786   C 248.44621,69.265353 249.24636,69.66573 250.24654,69.66573   C 251.04669,69.66573 251.74682,69.465541 252.44695,69.065164   C 253.14708,68.664786 253.74719,68.064219 254.3473,67.363558   L 254.3473,58.254964   L 255.44751,58.254964   z "
     id="path27" />
  <path
     style="fill:#7c7d7e;fill-rule:nonzero;fill-opacity:1;stroke:none;"
     clip-path="url(#clipEmfPath1)"
     d="  M 267.54976,59.856475   L 267.54976,59.856475   C 267.44974,59.95657 267.44974,59.95657 267.44974,60.056664   C 267.34972,60.056664 267.34972,60.056664 267.2497,60.056664   C 267.14969,60.056664 267.04967,59.95657 266.94965,59.856475   C 266.74961,59.756381 266.64959,59.656286 266.34954,59.556192   C 266.1495,59.356003 265.84944,59.255909 265.44937,59.155814   C 265.14931,59.05572 264.74924,59.05572 264.24915,59.05572   C 263.54902,59.05572 262.9489,59.155814 262.34879,59.356003   C 261.8487,59.656286 261.34861,59.95657 261.04855,60.457042   C 260.64848,60.85742 260.34842,61.457986 260.14838,62.158647   C 259.94835,62.759214 259.84833,63.459875 259.84833,64.360725   C 259.84833,65.16148 259.94835,65.962236 260.14838,66.562803   C 260.34842,67.263464 260.64848,67.763936 261.04855,68.264408   C 261.34861,68.664786 261.8487,68.965069 262.34879,69.265353   C 262.84889,69.465541 263.449,69.565636 264.04911,69.565636   C 264.64922,69.565636 265.14931,69.565636 265.54939,69.365447   C 265.94946,69.265353 266.24952,69.065164 266.44956,68.965069   C 266.74961,68.76488 266.94965,68.664786 267.04967,68.464597   C 267.2497,68.364503 267.34972,68.264408 267.44974,68.264408   C 267.54976,68.264408 267.64978,68.364503 267.64978,68.364503   L 267.94983,68.76488   C 267.84982,69.065164 267.54976,69.265353 267.2497,69.465541   C 267.04967,69.66573 266.64959,69.865919 266.34954,70.066108   C 265.94946,70.166202 265.54939,70.266297 265.14931,70.366391   C 264.74924,70.466486 264.34916,70.466486 263.84907,70.466486   C 263.14894,70.466486 262.44881,70.366391 261.74868,70.066108   C 261.14857,69.765825 260.54846,69.365447 260.14838,68.864975   C 259.64829,68.364503 259.34823,67.663841 259.04818,66.96318   C 258.84814,66.162425 258.6481,65.261575 258.6481,64.360725   C 258.6481,63.359781 258.84814,62.559025 259.04818,61.75827   C 259.34823,61.057608 259.64829,60.356947 260.14838,59.856475   C 260.54846,59.255909 261.14857,58.855531 261.8487,58.555247   C 262.54883,58.254964 263.24896,58.054775 264.14913,58.054775   C 264.94928,58.054775 265.64941,58.254964 266.24952,58.455153   C 266.84963,58.755436 267.34972,59.05572 267.84982,59.456097   L 267.54976,59.856475   z "
     id="path28" />
  <path
     style="fill:#7c7d7e;fill-rule:nonzero;fill-opacity:1;stroke:none;"
     clip-path="url(#clipEmfPath1)"
     d="  M 277.55162,64.560914   L 277.55162,64.560914   C 276.45142,64.560914 275.45123,64.661008 274.65108,64.761103   C 273.75091,64.961292 273.1508,65.16148 272.55069,65.361669   C 272.0506,65.661953 271.65052,65.862142 271.35047,66.262519   C 271.15043,66.562803 270.95039,66.96318 270.95039,67.363558   C 270.95039,67.763936 271.05041,68.164314 271.15043,68.464597   C 271.35047,68.76488 271.5505,68.965069 271.75054,69.165258   C 271.95058,69.365447 272.25063,69.465541 272.55069,69.565636   C 272.75073,69.66573 273.05078,69.66573 273.45086,69.66573   C 273.85093,69.66573 274.35102,69.66573 274.65108,69.565636   C 275.05116,69.465541 275.45123,69.365447 275.75129,69.165258   C 276.15136,68.965069 276.45142,68.76488 276.75147,68.464597   C 277.05153,68.264408 277.35158,67.964125 277.55162,67.663841   L 277.55162,64.560914   z  M 270.55032,59.95657   L 270.55032,59.95657   C 271.15043,59.356003 271.75054,58.855531 272.45067,58.555247   C 273.1508,58.254964 273.95095,58.054775 274.85112,58.054775   C 275.45123,58.054775 276.05134,58.15487 276.55143,58.355059   C 277.05153,58.555247 277.4516,58.855531 277.75166,59.255909   C 278.05171,59.656286 278.35177,60.156758 278.45179,60.657231   C 278.65182,61.257797 278.75184,61.858364 278.75184,62.458931   L 278.75184,70.366391   L 278.25175,70.366391   C 278.05171,70.366391 277.85168,70.266297 277.85168,69.966014   L 277.65164,68.464597   C 277.35158,68.76488 276.95151,69.065164 276.65145,69.365447   C 276.3514,69.565636 275.95132,69.765825 275.65127,69.966014   C 275.25119,70.166202 274.85112,70.266297 274.45104,70.366391   C 274.05097,70.466486 273.65089,70.56658 273.1508,70.56658   C 272.75073,70.56658 272.35065,70.466486 271.95058,70.366391   C 271.5505,70.266297 271.15043,70.066108 270.85037,69.765825   C 270.55032,69.565636 270.35028,69.265353 270.15024,68.864975   C 269.95021,68.464597 269.85019,67.964125 269.85019,67.463653   C 269.85019,66.96318 270.05023,66.462708 270.35028,66.06233   C 270.65034,65.561858 271.05041,65.16148 271.65052,64.861197   C 272.35065,64.560914 273.1508,64.260631 274.05097,64.060442   C 275.05116,63.860253 276.25138,63.760158 277.55162,63.760158   L 277.55162,62.458931   C 277.55162,61.357892 277.35158,60.557136 276.85149,59.95657   C 276.3514,59.356003 275.65127,59.05572 274.7511,59.05572   C 274.15099,59.05572 273.65089,59.05572 273.25082,59.255909   C 272.85075,59.456097 272.45067,59.556192 272.25063,59.756381   C 271.95058,59.95657 271.65052,60.156758 271.5505,60.356947   C 271.35047,60.457042 271.15043,60.557136 271.05041,60.557136   C 270.95039,60.557136 270.95039,60.557136 270.85037,60.557136   C 270.75036,60.457042 270.75036,60.457042 270.75036,60.356947   L 270.55032,59.95657   z "
     id="path29" />
  <path
     style="fill:#7c7d7e;fill-rule:nonzero;fill-opacity:1;stroke:none;"
     clip-path="url(#clipEmfPath1)"
     d="  M 290.65406,59.95657   L 290.65406,59.95657   C 290.65406,59.95657 290.55404,59.95657 290.55404,60.056664   C 290.55404,60.056664 290.45402,60.056664 290.354,60.056664   C 290.354,60.056664 290.25398,59.95657 290.05395,59.856475   C 289.95393,59.756381 289.75389,59.656286 289.55385,59.556192   C 289.2538,59.356003 288.95374,59.255909 288.65369,59.155814   C 288.25361,59.05572 287.85354,59.05572 287.35344,59.05572   C 286.65331,59.05572 286.0532,59.155814 285.55311,59.356003   C 284.953,59.656286 284.55292,59.95657 284.15285,60.457042   C 283.75277,60.85742 283.45272,61.457986 283.3527,62.158647   C 283.15266,62.759214 283.05264,63.459875 283.05264,64.360725   C 283.05264,65.16148 283.15266,65.962236 283.3527,66.562803   C 283.55274,67.263464 283.75277,67.763936 284.15285,68.264408   C 284.55292,68.664786 284.953,69.065164 285.45309,69.265353   C 285.95318,69.465541 286.55329,69.565636 287.25342,69.565636   C 287.75352,69.565636 288.25361,69.565636 288.65369,69.365447   C 289.05376,69.265353 289.35382,69.065164 289.65387,68.965069   C 289.85391,68.76488 290.05395,68.664786 290.25398,68.464597   C 290.354,68.364503 290.45402,68.264408 290.55404,68.264408   C 290.65406,68.264408 290.75408,68.364503 290.85409,68.464597   L 291.15415,68.76488   C 290.95411,69.065164 290.75408,69.265353 290.45402,69.465541   C 290.15396,69.66573 289.85391,69.865919 289.45383,70.066108   C 289.15378,70.166202 288.7537,70.266297 288.35363,70.366391   C 287.95355,70.466486 287.45346,70.466486 287.05339,70.466486   C 286.25324,70.466486 285.55311,70.366391 284.953,70.066108   C 284.25287,69.865919 283.75277,69.365447 283.25268,68.864975   C 282.85261,68.364503 282.45253,67.663841 282.25249,66.96318   C 281.95244,66.162425 281.85242,65.261575 281.85242,64.360725   C 281.85242,63.359781 281.95244,62.559025 282.25249,61.75827   C 282.45253,61.057608 282.75259,60.356947 283.25268,59.856475   C 283.75277,59.255909 284.35289,58.855531 284.953,58.555247   C 285.65313,58.254964 286.45328,58.054775 287.25342,58.054775   C 288.05357,58.054775 288.7537,58.254964 289.35382,58.455153   C 289.95393,58.755436 290.55404,59.05572 290.95411,59.456097   L 290.65406,59.95657   z "
     id="path30" />
  <path
     style="fill:#7c7d7e;fill-rule:nonzero;fill-opacity:1;stroke:none;"
     clip-path="url(#clipEmfPath1)"
     d="  M 295.25491,58.254964   L 295.25491,58.254964   L 295.25491,70.366391   L 294.15471,70.366391   L 294.15471,58.254964   L 295.25491,58.254964   z  M 295.75501,54.151092   L 295.75501,54.151092   C 295.75501,54.251187 295.75501,54.451375 295.65499,54.55147   C 295.65499,54.651564 295.55497,54.751659 295.45495,54.851753   C 295.35493,54.951848 295.25491,55.051942 295.05488,55.152036   C 294.95486,55.152036 294.85484,55.152036 294.6548,55.152036   C 294.55478,55.152036 294.45476,55.152036 294.25473,55.152036   C 294.15471,55.051942 294.05469,54.951848 293.95467,54.851753   C 293.85465,54.751659 293.75463,54.651564 293.75463,54.55147   C 293.65462,54.451375 293.65462,54.251187 293.65462,54.151092   C 293.65462,53.950903 293.65462,53.850809 293.75463,53.750714   C 293.75463,53.550525 293.85465,53.450431 293.95467,53.350337   C 294.05469,53.250242 294.15471,53.250242 294.25473,53.150148   C 294.45476,53.050053 294.55478,53.050053 294.6548,53.050053   C 294.85484,53.050053 294.95486,53.050053 295.15489,53.150148   C 295.25491,53.250242 295.35493,53.250242 295.45495,53.350337   C 295.55497,53.450431 295.65499,53.550525 295.65499,53.750714   C 295.75501,53.850809 295.75501,53.950903 295.75501,54.151092   z "
     id="path31" />
  <path
     style="fill:#7c7d7e;fill-rule:nonzero;fill-opacity:1;stroke:none;"
     clip-path="url(#clipEmfPath1)"
     d="  M 306.85707,53.050053   L 306.85707,53.050053   L 304.25659,56.052886   C 304.25659,56.152981 304.15657,56.253075 304.05655,56.253075   C 303.95653,56.253075 303.95653,56.253075 303.85651,56.253075   L 303.15638,56.253075   L 305.05674,53.450431   C 305.15675,53.250242 305.25677,53.150148 305.35679,53.050053   C 305.45681,53.050053 305.55683,53.050053 305.75687,53.050053   L 306.85707,53.050053   z  M 304.15657,69.565636   L 304.15657,69.565636   C 304.8567,69.565636 305.45681,69.465541 306.05692,69.265353   C 306.55701,68.965069 307.05711,68.664786 307.35716,68.164314   C 307.75724,67.763936 307.95728,67.163369 308.15731,66.462708   C 308.35735,65.862142 308.45737,65.16148 308.45737,64.360725   C 308.45737,63.559969 308.35735,62.759214 308.15731,62.158647   C 307.95728,61.457986 307.75724,60.957514 307.35716,60.457042   C 307.05711,59.95657 306.55701,59.656286 306.05692,59.356003   C 305.45681,59.155814 304.8567,59.05572 304.15657,59.05572   C 303.45644,59.05572 302.75631,59.155814 302.25621,59.356003   C 301.75612,59.656286 301.25603,59.95657 300.95597,60.457042   C 300.5559,60.957514 300.25584,61.457986 300.15582,62.158647   C 299.95579,62.759214 299.85577,63.559969 299.85577,64.360725   C 299.85577,65.16148 299.95579,65.862142 300.15582,66.462708   C 300.25584,67.163369 300.5559,67.763936 300.95597,68.164314   C 301.25603,68.664786 301.75612,68.965069 302.25621,69.265353   C 302.75631,69.465541 303.45644,69.565636 304.15657,69.565636   z  M 304.15657,58.15487   L 304.15657,58.15487   C 305.05674,58.15487 305.75687,58.254964 306.457,58.555247   C 307.15713,58.855531 307.75724,59.255909 308.15731,59.756381   C 308.65741,60.356947 309.05748,60.957514 309.25752,61.75827   C 309.55757,62.559025 309.65759,63.359781 309.65759,64.360725   C 309.65759,65.261575 309.55757,66.162425 309.25752,66.863086   C 309.05748,67.663841 308.65741,68.264408 308.15731,68.864975   C 307.75724,69.365447 307.15713,69.765825 306.457,70.066108   C 305.75687,70.366391 305.05674,70.56658 304.15657,70.56658   C 303.2564,70.56658 302.55627,70.366391 301.85614,70.066108   C 301.15601,69.765825 300.5559,69.365447 300.05581,68.864975   C 299.65573,68.264408 299.25566,67.663841 299.05562,66.863086   C 298.75556,66.162425 298.65555,65.261575 298.65555,64.360725   C 298.65555,63.359781 298.75556,62.559025 299.05562,61.75827   C 299.25566,60.957514 299.65573,60.356947 300.05581,59.756381   C 300.5559,59.255909 301.15601,58.855531 301.85614,58.555247   C 302.55627,58.254964 303.2564,58.15487 304.15657,58.15487   z "
     id="path32" />
  <path
     style="fill:#7c7d7e;fill-rule:nonzero;fill-opacity:1;stroke:none;"
     clip-path="url(#clipEmfPath1)"
     d="  M 313.95839,60.457042   L 313.95839,60.457042   C 314.5585,59.756381 315.15861,59.155814 315.95876,58.755436   C 316.65889,58.355059 317.45904,58.15487 318.35921,58.15487   C 319.05934,58.15487 319.65945,58.254964 320.15954,58.455153   C 320.65964,58.655342 321.05971,58.955625 321.35977,59.356003   C 321.65982,59.756381 321.95988,60.156758 322.15992,60.757325   C 322.25994,61.357892 322.35995,61.958458 322.35995,62.659119   L 322.35995,70.366391   L 321.25975,70.366391   L 321.25975,62.659119   C 321.25975,61.558081 320.95969,60.657231 320.4596,59.95657   C 319.95951,59.356003 319.15936,59.05572 318.05915,59.05572   C 317.25901,59.05572 316.55887,59.255909 315.85874,59.656286   C 315.15861,60.056664 314.5585,60.557136 314.05841,61.257797   L 314.05841,70.366391   L 312.85819,70.366391   L 312.85819,58.254964   L 313.55832,58.254964   C 313.75835,58.254964 313.85837,58.355059 313.85837,58.555247   L 313.95839,60.457042   z "
     id="path33" />
</svg>
